<svg width="32" height="33" viewBox="0 0 32 33" fill="none" xmlns="http://www.w3.org/2000/svg">
<path fill-rule="evenodd" clip-rule="evenodd" d="M0 16.5C0 7.66344 7.16344 0.5 16 0.5C24.8366 0.5 32 7.66344 32 16.5C32 25.3366 24.8366 32.5 16 32.5C7.16344 32.5 0 25.3366 0 16.5ZM22.1 12C22.8 11.9 23.4 11.8 24 11.5C23.6 12.2 23 12.8 22.3 13.2C22.5 17.9 19.1 23 13 23C11.2 23 9.5 22.4 8 21.5C9.7 21.7 11.5 21.2 12.7 20.3C11.2 20.3 10 19.3 9.6 18C10.1 18.1 10.6 18 11.1 17.9C9.6 17.5 8.5 16.1 8.5 14.6C9 14.8 9.5 15 10 15C8.6 14 8.1 12.1 9 10.6C10.7 12.6 13.1 13.9 15.8 14C15.3 12 16.9 10 19 10C19.9 10 20.8 10.4 21.4 11C22.2 10.8 22.9 10.6 23.5 10.2C23.3 11 22.8 11.6 22.1 12Z" fill="#3B6E49"/>
</svg>
